PathFileType	4	(X/Y/Z)	36_1_rein_31_p1_0-498_filt_butterworth.trc
DataRate	CameraRate	NumFrames	NumMarkers	Units	OrigDataRate	OrigDataStartFrame	OrigNumFrames
57.0	57.0	5	27	m	57.0	0	498
Frame#	Time	RHip			RKnee			RAnkle			RBigToe			RSmallToe			RHeel			LHip			LKnee			LAnkle			LBigToe			LSmallToe			LHeel			Neck			Head			Nose			RShoulder			RElbow			RWrist			RThumb			RIndex			RPinky			LShoulder			LElbow			LWrist			LThumb			LIndex			LPinky			
		X1	Y1	Z1	X2	Y2	Z2	X3	Y3	Z3	X4	Y4	Z4	X5	Y5	Z5	X6	Y6	Z6	X7	Y7	Z7	X8	Y8	Z8	X9	Y9	Z9	X10	Y10	Z10	X11	Y11	Z11	X12	Y12	Z12	X13	Y13	Z13	X14	Y14	Z14	X15	Y15	Z15	X16	Y16	Z16	X17	Y17	Z17	X18	Y18	Z18	X19	Y19	Z19	X20	Y20	Z20	X21	Y21	Z21	X22	Y22	Z22	X23	Y23	Z23	X24	Y24	Z24	X25	Y25	Z25	X26	Y26	Z26	X27	Y27	Z27	
0	0.0	0.3147184785067812	0.6050289942463374	-0.15922096067007543	0.35114397735559527	0.676227056360584	0.27455849479795424	0.3789758346938758	0.7697206051723446	0.7293294538482559	0.3299184351838596	0.517322945691987	0.7481275112819094	0.39924526552795214	0.5782119963899619	0.7623076874123257	0.3546394177503102	0.8448798519379352	0.78722627914527	0.10282100830351384	0.6215982456053935	-0.12298149104587586	0.1399371235997651	0.6690682632237555	0.30780788866807157	0.17595381701598645	0.7408835466979138	0.7195577199606005	0.19592478609080824	0.5486245281670865	0.7581655457471875	0.13615658893750698	0.578084575957124	0.7692875347528724	0.19570053704691406	0.8066352233205774	0.7862062130798195	0.1597403111675551	0.5165701911415763	-0.7807680782370547	0.1403890051483963	0.39169319857086826	-1.0292371060818266	0.14592489397545294	0.35763590662378825	-0.8791586580537027	0.34375162302796625	0.5702089572391521	-0.7113226088791569	0.40528839289017515	0.5510298067480142	-0.4299473621199106	0.27344751424347535	0.4034124262580312	-0.22961889512987185	0.18105015950419467	0.39650468598104843	-0.1793780164213572	0.18683469927570223	0.41880924434840994	-0.11838950845621507	0.19750232610563617	0.43533798226817405	-0.10631447526985385	0.006389313458328292	0.5407982215091302	-0.6939051797683655	-0.0006567663658874704	0.49422608526033507	-0.4070237700370373	0.155721776908537	0.42553582305968607	-0.21389253217592402	0.23096614689708783	0.3543764723261837	-0.17971866602391126	0.2388257177188085	0.38879510084569857	-0.12134891453431232	0.2185623239586475	0.41363278671830345	-0.10672914372099086
1	0.0175438596491228	0.3148215565072395	0.6049339397855763	-0.15562993838192146	0.3512145590281432	0.6760969074644618	0.2743164432953242	0.37927883518814	0.7692521101229381	0.7266300261254484	0.32979573267939594	0.518949359457907	0.745930289606894	0.40205454022490766	0.5685600162058748	0.7553561840893871	0.35434161440735146	0.844763099220039	0.7855132709070339	0.10177076769958453	0.6206419402330857	-0.1249465203721218	0.13982880180738302	0.6686710547573015	0.30771967541820533	0.17315338127982505	0.7326447998391636	0.7121703500080261	0.19408521854148209	0.5477440621887795	0.757983455909371	0.13637183456005778	0.5787886451140616	0.7710339835815573	0.19384277093629992	0.7981727545422324	0.7822079667664399	0.15997292327710938	0.5171906860583562	-0.7788527173887043	0.1421356083650637	0.3983890861703807	-1.0303692394546242	0.14582367714917283	0.35756753858198465	-0.8790551489121927	0.3430460954863991	0.5750336021824562	-0.7112268590901989	0.4037556995089292	0.5549552314329014	-0.427532080870192	0.27476685238904186	0.403827200075746	-0.2296223101508374	0.18221739211146062	0.39728457762489783	-0.17601880016577243	0.18821470547576483	0.4205204279585493	-0.11324866212273882	0.1986512298199602	0.44011691912604334	-0.10607601415296773	0.00643486424784786	0.5407120636093186	-0.6939008767924938	0.0014657751589781686	0.4956938779799356	-0.40906353506381626	0.15326975002017262	0.43302698773161186	-0.21244431839962002	0.22836099414837177	0.36217172048661034	-0.178414655476602	0.23556761349652805	0.38899021824937613	-0.1218672432376003	0.21592368878997537	0.4215689652995561	-0.10520780371962432
2	0.0350877192982456	0.31490437286200784	0.6048643626138362	-0.15332489054258172	0.3512245025692787	0.6761032758631416	0.27425196278211733	0.3793459463928123	0.7691084118936049	0.7259940977565899	0.32959553965050853	0.5197553665811372	0.7442353318179543	0.4037582071188327	0.5629444919558273	0.7507341800716119	0.35439626778334293	0.8450328247483827	0.7854265898197113	0.10178853000176248	0.6201658566323422	-0.1254734646402672	0.13979253978047107	0.6684816295300692	0.3076641006501173	0.17212629304921617	0.7261665725559321	0.7077464342932701	0.1923178417147391	0.5468742101073866	0.7577922276874289	0.13631515443688008	0.5789180656787536	0.7704332911994172	0.1928845776670574	0.7934725631915269	0.780396144697431	0.1600223301616788	0.5173752301274122	-0.7784181632337807	0.14313931913554112	0.40224929799440423	-1.031028275746507	0.14574331849628508	0.35752953202460586	-0.8790010801012018	0.34236534260403373	0.5781782586387711	-0.7111653324031768	0.4016759431734927	0.556783046238558	-0.42600420696048236	0.2756953562121621	0.40412535621306483	-0.22958733574267953	0.1829779317994107	0.39788165775038203	-0.17337269633471383	0.18911206663740499	0.42175819810852294	-0.10961696183366093	0.2003478096232196	0.44499984541218696	-0.10558446416145958	0.006469338374307234	0.5406828191732046	-0.6939016363080476	0.00268928147473649	0.4965568291556869	-0.4095500426124008	0.15269343234271618	0.43472012422721573	-0.21210568700029825	0.22688594501016301	0.3665244177625103	-0.17699012274557996	0.23364640230084455	0.38874149782851863	-0.12223314485021423	0.21438624148372612	0.4261782647794124	-0.10487966198611412
3	0.0526315789473684	0.31500223918322157	0.6047538270419169	-0.15215754869818118	0.35115308339710377	0.6762735972514562	0.2746679685965007	0.3791962371394911	0.7692680673208171	0.7272701039156522	0.3292232446385235	0.5195839977044696	0.7427839249473811	0.4042480149115529	0.5616110048121864	0.748989312393594	0.35466352842211296	0.8454677713671168	0.7864051426113297	0.10249746874922629	0.6201267905822939	-0.12465435976531711	0.13983942113411033	0.6685011036875004	0.30764140963686104	0.17335389719648034	0.7203858317353571	0.7054038377759829	0.19112110788832343	0.5462313083437776	0.7576228291948816	0.1360658802556592	0.5787087871097907	0.7673763206104247	0.19295082939265393	0.7927892136375485	0.7810704915993736	0.1599036951730055	0.5171488811201491	-0.7793267522824305	0.14337226613085707	0.4031688735722449	-1.031201903855317	0.14569804725074878	0.35750585892157116	-0.8789985498080427	0.3408265076868092	0.5802960899395031	-0.7111182148455996	0.3995724380634089	0.5556879052444517	-0.42551637616769766	0.2764058756532035	0.40436637957745447	-0.2295482509158662	0.18336811902866712	0.39831871064871827	-0.17090529860943254	0.1893991392788228	0.4223380575966577	-0.10806734670147024	0.20224370293575258	0.4483616906033935	-0.10493282901341192	0.006500232229484695	0.5406998163165722	-0.6939053293392502	0.00297625736757364	0.4967576624406214	-0.40862948693575274	0.1538280392136442	0.43114460864773607	-0.21277403073818288	0.2264646831845119	0.36781315554164234	-0.17497971679865956	0.23311815934973934	0.3888175370247908	-0.12223357911615262	0.2141112586103825	0.4274871397573	-0.10568272996287498
4	0.0701754385964912	0.31510931712152135	0.6045757430310785	-0.1515809138727367	0.3510371145523004	0.6764613003366889	0.2757787458989482	0.3790153735021063	0.7694812918264277	0.7288136576448478	0.3287566382374979	0.5189495514451027	0.7413449128050552	0.40415876476271145	0.5622898711898123	0.7490006327160443	0.35485574183263335	0.8457144430627316	0.787156009575576	0.10302978867906641	0.6202246358954324	-0.12365148400399811	0.13991304235859678	0.6686132215509614	0.30764244542744823	0.17559552952758775	0.7146900907789843	0.7033723793271263	0.1907156488370952	0.5459158995502795	0.7574974581900176	0.13584784436402852	0.5786463674197296	0.7637040509486607	0.19350093490512724	0.7939535918755463	0.7828775076215062	0.15976858043178205	0.5168526222295886	-0.7803689261887342	0.14327079389131842	0.40280405493595867	-1.0311616941535129	0.14569266960834654	0.35748512299934726	-0.8790102536465979	0.338306965991204	0.581897699021194	-0.7111066835762575	0.39830667951747784	0.5533681680282041	-0.42558372937621913	0.27696694607660394	0.4045546233902908	-0.22955569433575668	0.18362664315747446	0.39860091696836325	-0.1680440328008596	0.18933514914488878	0.42244229042238757	-0.10796195117646272	0.2030975896637503	0.4483895107739874	-0.10435882048202605	0.006532708286690765	0.5407143477754541	-0.6939054920616371	0.002851492185178215	0.4966400388837928	-0.4075362553055563	0.15515206724129207	0.4270261958787082	-0.21354753084346112	0.22616998278895878	0.36909312424004614	-0.17257705841186954	0.23322645306131226	0.3911872202383156	-0.1214753988413235	0.21448529472264516	0.4273865364738975	-0.10673888593507666
